<svg width="20" height="20" viewBox="0 0 20 20" fill="none" xmlns="http://www.w3.org/2000/svg">
<g clip-path="url(#clip0_27_223)">
<path d="M14.5862 0.274902H5.41381C2.42858 0.274902 0 2.64479 0 5.55786V14.5087C0 17.4216 2.42858 19.7915 5.41381 19.7915H14.5863C17.5714 19.7915 20 17.4216 20 14.5087V5.55786C20 2.64479 17.5714 0.274902 14.5862 0.274902V0.274902ZM9.99998 15.3696C6.98454 15.3696 4.53139 12.9757 4.53139 10.0332C4.53139 7.09063 6.98454 4.69677 9.99998 4.69677C13.0154 4.69677 15.4686 7.09063 15.4686 10.0332C15.4686 12.9757 13.0154 15.3696 9.99998 15.3696V15.3696ZM15.5993 5.95527C14.7082 5.95527 13.9834 5.248 13.9834 4.37842C13.9834 3.50885 14.7082 2.80143 15.5993 2.80143C16.4904 2.80143 17.2154 3.50885 17.2154 4.37842C17.2154 5.248 16.4904 5.95527 15.5993 5.95527Z" fill="#C4C4C4"/>
<path d="M9.99996 5.84094C7.63119 5.84094 5.70386 7.72154 5.70386 10.0332C5.70386 12.3447 7.63119 14.2255 9.99996 14.2255C12.3689 14.2255 14.2961 12.3447 14.2961 10.0332C14.2961 7.72154 12.3689 5.84094 9.99996 5.84094V5.84094Z" fill="#C4C4C4"/>
<path d="M15.5993 3.94574C15.3549 3.94574 15.1559 4.1399 15.1559 4.37844C15.1559 4.61698 15.3549 4.81114 15.5993 4.81114C15.8439 4.81114 16.0429 4.61713 16.0429 4.37844C16.0429 4.13976 15.8439 3.94574 15.5993 3.94574Z" fill="#C4C4C4"/>
</g>
<defs>
<clipPath id="clip0_27_223">
<rect width="20" height="19.5166" fill="white" transform="translate(0 0.274902)"/>
</clipPath>
</defs>
</svg>
