<svg width="20" height="20" viewBox="0 0 20 20" fill="none" xmlns="http://www.w3.org/2000/svg">
<g clip-path="url(#clip0_815_9)">
<path d="M10 19.7673C15.5228 19.7673 20 15.3984 20 10.009C20 4.61967 15.5228 0.250732 10 0.250732C4.47715 0.250732 0 4.61967 0 10.009C0 15.3984 4.47715 19.7673 10 19.7673Z" fill="#C4C4C4"/>
<path d="M4.57581 9.79759L14.2175 6.16995C14.665 6.01219 15.0558 6.27648 14.9108 6.93679L14.9116 6.93597L13.27 14.4832C13.1483 15.0183 12.8225 15.1484 12.3666 14.8963L9.86664 13.0983L8.66081 14.2319C8.52747 14.362 8.41497 14.4718 8.15664 14.4718L8.33414 11.9891L12.9675 7.90449C13.1691 7.73128 12.9225 7.63369 12.6566 7.80609L6.93081 11.324L4.46247 10.5726C3.92664 10.4067 3.91497 10.0497 4.57581 9.79759V9.79759Z" fill="white"/>
</g>
<defs>
<clipPath id="clip0_815_9">
<rect width="20" height="20" fill="white" transform="translate(0 0.250732)"/>
</clipPath>
</defs>
</svg>
